name Walk9.mot
datacolumns 19
datarows 12
range 2.34500000 2.40000000
endheader

                time	   L_ground_force_vx	   L_ground_force_vy	   L_ground_force_vz	   L_ground_force_px	   L_ground_force_py	   L_ground_force_pz	   R_ground_force_vx	   R_ground_force_vy	   R_ground_force_vz	   R_ground_force_px	   R_ground_force_py	   R_ground_force_pz	   L_ground_torque_x	   L_ground_torque_y	   L_ground_torque_z	   R_ground_torque_x	   R_ground_torque_y	   R_ground_torque_z	
          2.34500000	          0.00000000	         -0.00000000	          0.00000000	          0.00000000	          0.00000000	          0.00000000	         24.04060035	         75.89478005	          1.47823287	          0.39824590	          0.00000000	          0.04442037	          0.00000000	         -0.00000000	          0.00000000	          0.00000000	          0.03461278	          0.00000000	
          2.35000000	          0.00000000	          0.00000000	          0.00000000	          0.00000000	          0.00000000	          0.00000000	         17.76009465	         55.45761895	          0.98754327	          0.35946393	          0.00000000	          0.03993763	          0.00000000	         -0.00000000	          0.00000000	          0.00000000	          0.05329593	          0.00000000	
          2.35500000	          0.00000000	          0.00000000	         -0.00000000	          0.00000000	          0.00000000	          0.00000000	         12.39903683	         38.33160351	          0.56302005	          0.31328298	          0.00000000	          0.03466814	          0.00000000	         -0.00000000	          0.00000000	          0.00000000	          0.06264084	          0.00000000	
          2.36000000	          0.00000000	          0.00000000	         -0.00000000	          0.00000000	          0.00000000	          0.00000000	          7.99897553	         24.42405660	          0.23465731	          0.26165959	          0.00000000	          0.02883404	          0.00000000	         -0.00000000	          0.00000000	          0.00000000	          0.06431397	          0.00000000	
          2.36500000	          0.00000000	          0.00000000	         -0.00000000	          0.00000000	          0.00000000	          0.00000000	          4.54635745	         13.58447942	          0.00417327	          0.20826052	          0.00000000	          0.02285100	          0.00000000	         -0.00000000	          0.00000000	          0.00000000	          0.06037810	          0.00000000	
          2.37000000	          0.00000000	          0.00000000	         -0.00000000	         -0.00000000	          0.00000000	         -0.00000000	          1.97270594	          5.55895226	         -0.14396889	          0.15754872	          0.00000000	          0.01720721	          0.00000000	         -0.00000000	          0.00000000	          0.00000000	          0.05307931	          0.00000000	
          2.37500000	          0.00000000	          0.00000000	         -0.00000000	         -0.00000000	          0.00000000	         -0.00000000	          0.16625590	         -0.02730874	         -0.22758338	          0.11256802	          0.00000000	          0.01222707	          0.00000000	          0.00000000	          0.00000000	          0.00000000	          0.04420081	          0.00000000	
          2.38000000	          0.00000000	          0.00000000	         -0.00000000	         -0.00000000	          0.00000000	         -0.00000000	         -1.00533436	         -3.60750992	         -0.26320464	          0.07482000	          0.00000000	          0.00806640	          0.00000000	          0.00000000	          0.00000000	          0.00000000	          0.03501145	          0.00000000	
          2.38500000	          0.00000000	          0.00000000	         -0.00000000	         -0.00000000	          0.00000000	         -0.00000000	         -1.67714270	         -5.61811316	         -0.26523156	          0.04469557	          0.00000000	          0.00476028	          0.00000000	          0.00000000	          0.00000000	          0.00000000	          0.02634950	          0.00000000	
          2.39000000	          0.00000000	          0.00000000	         -0.00000000	         -0.00000000	          0.00000000	         -0.00000000	         -1.97531866	         -6.46314925	         -0.24555478	          0.02184247	          0.00000000	          0.00226365	          0.00000000	          0.00000000	          0.00000000	          0.00000000	          0.01871084	          0.00000000	
          2.39500000	          0.00000000	          0.00000000	         -0.00000000	         -0.00000000	          0.00000000	         -0.00000000	         -2.01030931	         -6.49389757	         -0.21351602	          0.00545975	          0.00000000	          0.00048358	          0.00000000	          0.00000000	          0.00000000	          0.00000000	          0.01233251	          0.00000000	
          2.40000000	          0.00000000	          0.00000000	         -0.00000000	         -0.00000000	          0.00000000	         -0.00000000	         -1.87375698	         -6.00002709	         -0.17608366	         -0.00547797	          0.00000000	         -0.00069618	          0.00000000	          0.00000000	          0.00000000	          0.00000000	          0.00726686	          0.00000000	
